<?xml version="1.0" encoding="utf-8"?>
<svg xmlns="http://www.w3.org/2000/svg"
     viewBox="0 0 100 100"
     width="256" height="256" role="img" aria-label="Gemini 69 logo">
  <!-- black background -->
  <rect width="100%" height="100%" fill="#000"/>

  <!-- glow filter -->
  <defs>
    <filter id="glow" x="-50%" y="-50%" width="200%" height="200%">
      <!-- make a blurred version of the source -->
      <feGaussianBlur in="SourceGraphic" stdDeviation="3" result="blur"/>
      <!-- tint the blur to neon color -->
      <feFlood flood-color="#00c8ff" flood-opacity="0.9" result="flood"/>
      <feComposite in="flood" in2="blur" operator="in" result="glowColor"/>
      <!-- layer the glow under the original -->
      <feMerge>
        <feMergeNode in="glowColor"/>
        <feMergeNode in="SourceGraphic"/>
      </feMerge>
    </filter>

    <!-- smaller soft glow for inner shapes -->
    <filter id="soft" x="-60%" y="-60%" width="220%" height="220%">
      <feGaussianBlur in="SourceGraphic" stdDeviation="2" result="b"/>
      <feFlood flood-color="#00c8ff" flood-opacity="0.75" result="fb"/>
      <feComposite in="fb" in2="b" operator="in" result="gb"/>
      <feMerge><feMergeNode in="gb"/><feMergeNode in="SourceGraphic"/></feMerge>
    </filter>
  </defs>

  <!-- main neon strokes (two mirrored curved strokes forming 6/9) -->
  <!-- top curve (like a stylized '6') -->
  <path d="M 22 38
           C 30 10, 62 10, 68 26
           C 72 34, 64 40, 54 42
           C 44 44, 36 44, 30 40"
        fill="none"
        stroke="#00c8ff"
        stroke-width="6.8"
        stroke-linecap="round"
        stroke-linejoin="round"
        filter="url(#glow)"/>

  <!-- bottom curve (like a stylized '9' / mirrored) -->
  <path d="M 78 62
           C 70 90, 38 90, 32 74
           C 28 66, 36 60, 46 58
           C 56 56, 64 56, 70 60"
        fill="none"
        stroke="#00c8ff"
        stroke-width="6.8"
        stroke-linecap="round"
        stroke-linejoin="round"
        filter="url(#glow)"/>

  <!-- inner eye / center ring to emphasize the Gemini eye -->
  <ellipse cx="50" cy="50" rx="12" ry="8"
           fill="none"
           stroke="#00e9ff"
           stroke-width="3"
           stroke-linecap="round"
           stroke-linejoin="round"
           filter="url(#soft)"/>

  <!-- optional small accent triangles to add an edgy / geometric feel -->
  <polygon points="28,18 32,12 36,18" fill="#00c8ff" opacity="0.98"/>
  <polygon points="64,82 60,88 56,82" fill="#00c8ff" opacity="0.98"/>

</svg>

